<?xml version="1.0" encoding="UTF-8"?>
<svg xmlns="http://www.w3.org/2000/svg" version="1.1" viewBox="0 0 300 200">
  <defs>
    <style>
      .cls-1 {
        fill: none;
      }

      .cls-2 {
        fill: #fff;
      }

      .cls-3 {
        fill: #00f0fa;
      }
    </style>
  </defs>
  <!-- Generator: Adobe Illustrator 28.7.1, SVG Export Plug-In . SVG Version: 1.2.0 Build 142)  -->
  <g>
    <g id="Camada_1">
      <rect class="cls-1" x="16" y="-148.65" width="227.5" height="156.9"/>
      <path class="cls-3" d="M149.95,32.97c7.54,0,13.65-6.12,13.65-13.67s-6.11-13.67-13.65-13.67-13.65,6.12-13.65,13.67,6.11,13.67,13.65,13.67Z"/>
      <path class="cls-3" d="M109.01,139.63c7.54,0,13.65-6.12,13.65-13.67s-6.11-13.67-13.65-13.67-13.65,6.12-13.65,13.67,6.11,13.67,13.65,13.67Z"/>
      <path class="cls-2" d="M274.24,129.42c-7.5-.8-14.22,4.64-15,12.16-1.23,11.62-9.27,21.17-20.5,24.34-11.23,3.17-23.07-.76-30.18-10.02-4.6-5.99-13.16-7.11-19.14-2.5-5.98,4.61-7.09,13.19-2.49,19.18,10.74,13.99,26.99,21.79,43.97,21.79,5.06,0,10.2-.69,15.27-2.13,22.02-6.23,37.81-25,40.23-47.79.8-7.52-4.64-14.25-12.14-15.03h-.02Z"/>
      <path class="cls-2" d="M278.35,56.32c4.67-2.16,7.93-6.9,7.93-12.4,0-7.55-6.11-13.67-13.65-13.67h-40.79c-30.1,0-54.58,24.55-54.58,54.69s24.5,54.71,54.58,54.71,54.58-24.55,54.58-54.71c0-10.48-2.96-20.29-8.1-28.61h.02ZM231.85,112.3c-15.04,0-27.29-12.27-27.29-27.35s12.25-27.35,27.29-27.35,27.29,12.27,27.29,27.35-12.25,27.35-27.29,27.35Z"/>
      <path class="cls-2" d="M109.01,30.25H27.18c-7.54,0-13.65,6.12-13.65,13.67s6.11,13.67,13.65,13.67h48.91l-58.55,58.7c-3.91,3.92-5.06,9.79-2.96,14.9,2.12,5.11,7.09,8.43,12.6,8.43h51.81c7.54,0,13.65-6.12,13.65-13.67s-6.11-13.67-13.65-13.67h-18.88l58.55-58.7c3.91-3.92,5.06-9.79,2.96-14.9-2.12-5.11-7.09-8.43-12.6-8.43Z"/>
      <path class="cls-2" d="M149.95,35.54c-7.54,0-13.65,6.12-13.65,13.67v76.74c0,7.55,6.11,13.67,13.65,13.67s13.65-6.12,13.65-13.67V49.22c0-7.55-6.11-13.67-13.65-13.67Z"/>
    </g>
  </g>
</svg>